<?xml version="1.0" encoding="utf-8"?>
<!-- Generator: Adobe Illustrator 16.0.0, SVG Export Plug-In . SVG Version: 6.00 Build 0)  -->
<!DOCTYPE svg PUBLIC "-//W3C//DTD SVG 1.1//EN" "http://www.w3.org/Graphics/SVG/1.1/DTD/svg11.dtd">
<svg version="1.1" id="Layer_1" xmlns="http://www.w3.org/2000/svg" xmlns:xlink="http://www.w3.org/1999/xlink" x="0px" y="0px"
	 width="500px" height="500px" viewBox="0 0 500 500" enable-background="new 0 0 500 500" xml:space="preserve">
<path d="M133.732,308.516h-13.025v-48.099c0-17.711-6.249-26.566-18.752-26.566c-2.897,0-5.559,0.609-7.988,1.827
	c-2.431,1.219-4.543,2.864-6.337,4.949s-3.183,4.455-4.17,7.116c-0.987,2.66-1.476,5.442-1.476,8.334v52.438h-13.02v-51.221
	c0-6.946-1.509-12.592-4.516-16.932c-3.012-4.34-7.467-6.513-13.37-6.513c-3.007,0-5.788,0.664-8.334,1.998
	c-2.546,1.333-4.746,3.127-6.601,5.382s-3.297,4.806-4.34,7.643c-1.042,2.836-1.563,5.7-1.563,8.597v51.046H17.222V246.53
	c0-3.357-0.061-6.858-0.176-10.507s-0.291-7.439-0.521-11.373h11.637v13.716h1.213c5.903-10.303,14.583-15.455,26.044-15.455
	c5.558,0,10.391,1.509,14.5,4.516c4.109,3.012,7.028,7.121,8.768,12.328h0.346c3.007-5.559,6.858-9.75,11.544-12.586
	c4.69-2.837,10.04-4.258,16.063-4.258c8.219,0,14.786,3.155,19.708,9.464c4.921,6.31,7.379,15.082,7.379,26.308v49.833H133.732z
	 M201.461,308.516l-1.212-10.764h-0.521c-5.673,8.449-14.122,12.673-25.354,12.673c-3.588,0-6.891-0.581-9.896-1.733
	c-3.013-1.157-5.618-2.804-7.813-4.948c-2.194-2.146-3.934-4.658-5.206-7.556c-1.273-2.891-1.909-6.078-1.909-9.552
	c0-10.188,4.225-17.913,12.674-23.18c8.448-5.268,20.722-7.9,36.808-7.9v-1.909c0-13.771-6.425-20.662-19.273-20.662
	c-7.988,0-15.05,2.024-21.184,6.079l-3.127-9.031c7.406-4.745,16.146-7.121,26.22-7.121c20.371,0,30.56,11.171,30.56,33.511v32.129
	c0,4.049,0.088,7.73,0.263,11.027c0.176,3.304,0.494,6.282,0.955,8.943h-11.982V308.516z M199.207,265.107h-2.605
	c-22.457,0-33.688,6.6-33.688,19.795c0,5.212,1.389,9.085,4.17,11.637c2.776,2.546,6.249,3.818,10.419,3.818
	c2.661,0,5.294-0.461,7.9-1.388c2.606-0.928,4.921-2.228,6.946-3.906c2.023-1.679,3.676-3.73,4.948-6.161s1.909-5.152,1.909-8.158
	V265.107z M289.678,237.846c-5.098-2.782-11-4.17-17.709-4.17c-4.746,0-8.977,0.839-12.68,2.518
	c-3.703,1.68-6.832,3.994-9.376,6.946c-2.546,2.951-4.516,6.452-5.903,10.507c-1.389,4.049-2.085,8.449-2.085,13.194
	c0,4.861,0.724,9.321,2.172,13.371c1.448,4.049,3.474,7.494,6.079,10.331c2.6,2.836,5.702,5.036,9.29,6.6s7.582,2.343,11.982,2.343
	c6.248,0,12.441-1.388,18.582-4.17l2.6,10.067c-6.484,3.243-14.352,4.861-23.613,4.861c-6.139,0-11.691-1.015-16.674-3.039
	c-4.975-2.024-9.26-4.922-12.848-8.68c-3.588-3.764-6.337-8.246-8.246-13.458c-1.909-5.213-2.864-11.056-2.864-17.54
	c0-6.601,1.07-12.619,3.21-18.062c2.14-5.438,5.124-10.128,8.942-14.063c3.818-3.934,8.422-7.006,13.804-9.2
	c5.383-2.2,11.313-3.303,17.799-3.303c8.447,0,15.395,1.509,20.836,4.516L289.678,237.846L289.678,237.846z M404.635,248.785
	c0,9.146-1.244,17.479-3.736,25.002c-2.49,7.527-6.018,14.007-10.594,19.449c-4.57,5.442-10.072,9.667-16.498,12.674
	c-6.424,3.006-13.572,4.515-21.441,4.515c-7.527,0-14.412-1.476-20.662-4.427c-6.254-2.952-11.637-7.062-16.15-12.328
	c-4.516-5.268-8.016-11.521-10.508-18.753c-2.49-7.231-3.73-15.192-3.73-23.877c0-9.025,1.301-17.331,3.906-24.914
	c2.605-7.582,6.223-14.062,10.852-19.449c4.631-5.382,10.156-9.579,16.58-12.586c6.432-3.006,13.465-4.516,21.107-4.516
	c7.637,0,14.609,1.449,20.92,4.34c6.309,2.897,11.664,6.946,16.064,12.158c4.398,5.212,7.813,11.461,10.242,18.753
	C403.418,232.117,404.635,240.105,404.635,248.785z M390.568,249.482c0-6.946-0.928-13.398-2.781-19.362
	c-1.855-5.958-4.428-11.17-7.727-15.625c-3.303-4.455-7.236-7.928-11.807-10.419c-4.57-2.485-9.639-3.73-15.191-3.73
	c-5.672,0-10.852,1.245-15.543,3.73c-4.691,2.491-8.68,5.958-11.982,10.419c-3.303,4.455-5.875,9.782-7.73,15.977
	c-1.854,6.194-2.775,12.937-2.775,20.229c0,6.83,0.926,13.228,2.775,19.186c1.855,5.964,4.428,11.144,7.73,15.543
	c3.297,4.4,7.264,7.873,11.895,10.419s9.723,3.818,15.279,3.818c5.674,0,10.854-1.272,15.543-3.818
	c4.691-2.546,8.68-6.079,11.982-10.594c3.303-4.516,5.844-9.811,7.643-15.89C389.668,263.286,390.568,256.658,390.568,249.482
	L390.568,249.482z M483.475,277.09c0,4.976-0.926,9.524-2.781,13.634c-1.854,4.109-4.488,7.615-7.9,10.507
	c-3.412,2.896-7.549,5.124-12.416,6.688c-4.861,1.563-10.303,2.343-16.322,2.343c-12.043,0-21.588-2.485-28.65-7.467l3.645-10.94
	c7.752,4.861,16.377,7.292,25.873,7.292c7.988,0,14.182-1.91,18.582-5.729s6.602-8.91,6.602-15.279
	c0-5.903-1.713-10.677-5.125-14.325c-3.418-3.643-9.059-6.974-16.932-9.985c-20.025-7.521-30.037-18.522-30.037-32.99
	c0-4.51,0.895-8.679,2.688-12.498c1.795-3.818,4.313-7.121,7.555-9.897s7.088-4.915,11.543-6.425
	c4.455-1.503,9.289-2.255,14.502-2.255c10.066,0,18.285,1.854,24.656,5.559l-3.994,10.764c-5.674-3.588-12.734-5.382-21.184-5.382
	c-6.715,0-12.158,1.679-16.322,5.036c-4.17,3.358-6.25,7.813-6.25,13.371c0,2.661,0.373,5.036,1.125,7.121s1.998,4.049,3.736,5.903
	c1.734,1.854,4.082,3.621,7.035,5.295c2.951,1.679,6.688,3.445,11.197,5.294c5.207,2.085,9.666,4.313,13.369,6.688
	c3.705,2.376,6.744,4.949,9.119,7.726c2.375,2.781,4.082,5.821,5.125,9.118C482.955,269.535,483.475,273.15,483.475,277.09
	L483.475,277.09z"/>
</svg>
